<?xml version="1.0" encoding="UTF-8" standalone="no"?>
<svg
   xmlns:dc="http://purl.org/dc/elements/1.1/"
   xmlns:cc="http://creativecommons.org/ns#"
   xmlns:rdf="http://www.w3.org/1999/02/22-rdf-syntax-ns#"
   xmlns:svg="http://www.w3.org/2000/svg"
   xmlns="http://www.w3.org/2000/svg"
   xmlns:sodipodi="http://sodipodi.sourceforge.net/DTD/sodipodi-0.dtd"
   xmlns:inkscape="http://www.inkscape.org/namespaces/inkscape"
   width="450"
   height="450"
   viewBox="0 0 450 450"
   id="svg2"
   version="1.1"
   inkscape:version="0.48.0 r9654"
   sodipodi:docname="Übertragung nichtlinear-Model.svg">
  <metadata
     id="metadata284">
    <rdf:RDF>
      <cc:Work
         rdf:about="">
        <dc:format>image/svg+xml</dc:format>
        <dc:type
           rdf:resource="http://purl.org/dc/dcmitype/StillImage" />
      </cc:Work>
    </rdf:RDF>
  </metadata>
  <defs
     id="defs282" />
  <sodipodi:namedview
     pagecolor="#ffffff"
     bordercolor="#666666"
     borderopacity="1"
     objecttolerance="10"
     gridtolerance="10"
     guidetolerance="10"
     inkscape:pageopacity="0"
     inkscape:pageshadow="2"
     inkscape:window-width="1024"
     inkscape:window-height="721"
     id="namedview280"
     showgrid="false"
     inkscape:zoom="1.1933333"
     inkscape:cx="225"
     inkscape:cy="225"
     inkscape:window-x="-4"
     inkscape:window-y="-4"
     inkscape:window-maximized="1"
     inkscape:current-layer="svg2" />
  <title
     id="title4">Produce by DWG to SVG Converter MX</title>
  <desc
     id="desc6">Produce by DWG to SVG Converter MX</desc>
  <path
     d="m 122.66,88.27 0,206.43"
     id="path32"
     inkscape:connector-curvature="0"
     style="fill:none;stroke:#000000;stroke-width:1.2;stroke-miterlimit:4;stroke-dasharray:none" />
  <path
     d="m 86.45,294.7 217.3,0 m 0,0 0,-253.51 m 0,0 -217.3,0 m 0,0 0,253.51"
     id="path34"
     inkscape:connector-curvature="0"
     style="fill:none;stroke:#000000;stroke-width:1.2;stroke-miterlimit:4;stroke-dasharray:none" />
  <path
     d="m 195.1,41.19 0,253.51"
     id="path36"
     inkscape:connector-curvature="0"
     style="fill:none;stroke:#000000;stroke-width:1.2;stroke-miterlimit:4;stroke-dasharray:none" />
  <path
     d="m 231.31,294.7 0,-253.51"
     id="path38"
     inkscape:connector-curvature="0"
     style="fill:none;stroke:#000000;stroke-width:1.2;stroke-miterlimit:4;stroke-dasharray:none" />
  <path
     d="m 267.53,41.19 0,253.51"
     id="path40"
     inkscape:connector-curvature="0"
     style="fill:none;stroke:#000000;stroke-width:1.2;stroke-miterlimit:4;stroke-dasharray:none" />
  <path
     d="m 86.45,258.49 217.3,0"
     id="path42"
     inkscape:connector-curvature="0"
     style="fill:none;stroke:#000000;stroke-width:1.2;stroke-miterlimit:4;stroke-dasharray:none" />
  <path
     d="m 303.75,222.27 -217.3,0"
     id="path44"
     inkscape:connector-curvature="0"
     style="fill:none;stroke:#000000;stroke-width:1.2;stroke-miterlimit:4;stroke-dasharray:none" />
  <path
     d="m 86.45,186.05 217.3,0"
     id="path46"
     inkscape:connector-curvature="0"
     style="fill:none;stroke:#000000;stroke-width:1.2;stroke-miterlimit:4;stroke-dasharray:none" />
  <path
     d="m 303.75,149.84 -217.3,0"
     id="path48"
     inkscape:connector-curvature="0"
     style="fill:none;stroke:#000000;stroke-width:1.2;stroke-miterlimit:4;stroke-dasharray:none" />
  <path
     d="m 86.45,113.62 217.3,0"
     id="path50"
     inkscape:connector-curvature="0"
     style="fill:none;stroke:#000000;stroke-width:1.2;stroke-miterlimit:4;stroke-dasharray:none" />
  <path
     d="m 65.29,294.88 0,-0.9 0.28,-1.57 0.27,-0.66 0.28,-0.65 0.72,-0.98 0.46,-0.32 0.35,-0.25 0.73,-0.26 0.38,0 0.61,0 1.1,0.62 0.48,0.63 0.61,0.77 0.61,2.09 0,1.32 0,0.92 -0.27,1.57 -0.27,0.65 -0.26,0.65 -0.68,0.93 -0.42,0.3 -0.41,0.29 -0.8,0.29 -0.38,0 -0.76,0 -1.27,-0.9 -0.5,-0.89 -0.43,-0.76 -0.43,-1.82 0,-1.07 0,0 z m 1.54,0.2 0,1.1 0.27,1.79 0.27,0.69 0.22,0.59 0.67,0.58 0.44,0 0.21,0 0.44,-0.19 0.23,-0.19 0.23,-0.19 0.34,-0.64 0.12,-0.44 0.18,-0.68 0.18,-1.9 0,-1.22 0,-0.91 -0.19,-1.51 -0.18,-0.61 -0.15,-0.45 -0.36,-0.64 -0.22,-0.19 -0.16,-0.13 -0.39,-0.13 -0.23,0 -0.27,0 -0.47,0.24 -0.21,0.24 -0.28,0.33 -0.39,1.02 -0.1,0.7 -0.1,0.69 -0.1,1.38 0,0.67 0,0 z"
     id="path52"
     inkscape:connector-curvature="0"
     style="fill:#000000;fill-rule:evenodd;stroke-width:0.6;stroke-miterlimit:4;stroke-dasharray:none" />
  <path
     d="m 68.41,254.34 2.59,-1.27 0.26,0 0,8.98 0,0.44 0.04,0.56 0.03,0.11 0.04,0.11 0.15,0.16 0.12,0.06 0.12,0.06 0.48,0.07 0.36,0 0,0.3 -4,0 0,-0.3 0.38,0 0.48,-0.07 0.11,-0.05 0.11,-0.06 0.16,-0.15 0.04,-0.1 0.04,-0.09 0.04,-0.58 0,-0.47 0,-5.73 0,-0.59 -0.04,-0.74 -0.03,-0.17 -0.03,-0.13 -0.1,-0.18 -0.07,-0.06 -0.08,-0.06 -0.17,-0.06 -0.1,0 -0.15,0 -0.4,0.12 -0.26,0.13 -0.12,-0.24 z"
     id="path54"
     inkscape:connector-curvature="0"
     style="fill:#000000;fill-rule:evenodd;stroke-width:0.6;stroke-miterlimit:4;stroke-dasharray:none" />
  <path
     d="m 73.89,225.65 -0.74,2.05 -6.27,0 0,-0.29 1.38,-1.26 1.95,-2.06 0.56,-0.8 0.57,-0.8 0.56,-1.46 0,-0.67 0,-0.5 -0.31,-0.83 -0.31,-0.33 -0.31,-0.32 -0.74,-0.33 -0.43,0 -0.39,0 -0.71,0.23 -0.31,0.23 -0.31,0.23 -0.46,0.68 -0.15,0.44 -0.29,0 0.1,-0.72 0.5,-1.12 0.41,-0.39 0.4,-0.38 1.02,-0.39 0.6,0 0.65,0 1.08,0.41 0.43,0.42 0.43,0.41 0.44,0.98 0,0.56 0,0.41 -0.19,0.8 -0.19,0.41 -0.29,0.63 -0.94,1.35 -0.65,0.71 -0.98,1.06 -1.22,1.29 -0.24,0.22 2.78,0 0.42,0 0.59,-0.04 0.17,-0.03 0.17,-0.03 0.31,-0.13 0.14,-0.09 0.14,-0.1 0.23,-0.27 0.11,-0.18 0.29,0 z"
     id="path56"
     inkscape:connector-curvature="0"
     style="fill:#000000;fill-rule:evenodd;stroke-width:0.6;stroke-miterlimit:4;stroke-dasharray:none" />
  <path
     d="m 67.34,182.88 0.23,-0.53 0.57,-0.83 0.35,-0.29 0.35,-0.3 0.86,-0.29 0.52,0 0.64,0 0.98,0.42 0.34,0.41 0.26,0.31 0.25,0.66 0,0.36 0,0.58 -0.72,1.19 -0.73,0.62 0.49,0.19 0.73,0.55 0.26,0.36 0.25,0.36 0.25,0.83 0,0.49 0,0.68 -0.44,1.2 -0.44,0.5 -0.57,0.66 -1.66,0.66 -1.08,0 -0.54,0 -0.73,-0.13 -0.19,-0.14 -0.2,-0.13 -0.19,-0.29 0,-0.15 0,-0.11 0.09,-0.2 0.09,-0.09 0.1,-0.09 0.22,-0.08 0.13,0 0.09,0 0.2,0.03 0.1,0.03 0.07,0.02 0.3,0.14 0.24,0.12 0.23,0.13 0.33,0.14 0.09,0.03 0.14,0.04 0.31,0.04 0.16,0 0.4,0 0.7,-0.3 0.29,-0.31 0.3,-0.31 0.29,-0.73 0,-0.43 0,-0.31 -0.13,-0.6 -0.14,-0.29 -0.1,-0.22 -0.23,-0.33 -0.12,-0.12 -0.17,-0.15 -0.46,-0.29 -0.29,-0.13 -0.29,-0.12 -0.6,-0.13 -0.31,0 -0.25,0 0,-0.24 0.31,-0.04 0.62,-0.22 0.31,-0.18 0.31,-0.19 0.46,-0.44 0.14,-0.26 0.14,-0.26 0.14,-0.56 0,-0.31 0,-0.41 -0.25,-0.65 -0.26,-0.25 -0.25,-0.24 -0.63,-0.25 -0.37,0 -0.61,0 -1.01,0.65 -0.41,0.65 -0.26,-0.13 z"
     id="path58"
     inkscape:connector-curvature="0"
     style="fill:#000000;fill-rule:evenodd;stroke-width:0.6;stroke-miterlimit:4;stroke-dasharray:none" />
  <path
     d="m 74,151.35 0,1.11 -1.43,0 0,2.81 -1.29,0 0,-2.81 -4.5,0 0,-1 4.93,-7.03 0.86,0 0,6.92 1.43,0 z m -2.72,0 0,-5.27 -3.73,5.27 3.73,0 z"
     id="path60"
     inkscape:connector-curvature="0"
     style="fill:#000000;fill-rule:evenodd;stroke-width:0.6;stroke-miterlimit:4;stroke-dasharray:none" />
  <path
     d="m 73.5,108.43 -0.61,1.33 -3.2,0 -0.7,1.43 1.04,0.15 1.64,0.77 0.61,0.62 0.52,0.53 0.52,1.26 0,0.72 0,0.41 -0.17,0.78 -0.17,0.36 -0.17,0.35 -0.43,0.61 -0.25,0.25 -0.26,0.25 -0.58,0.4 -0.32,0.16 -0.45,0.21 -0.92,0.22 -0.47,0 -0.48,0 -0.7,-0.17 -0.22,-0.16 -0.21,-0.16 -0.22,-0.36 0,-0.19 0,-0.11 0.09,-0.2 0.09,-0.08 0.09,-0.09 0.23,-0.08 0.13,0 0.11,0 0.17,0.03 0.08,0.03 0.08,0.03 0.26,0.17 0.18,0.12 0.3,0.21 0.59,0.2 0.3,0 0.46,0 0.81,-0.34 0.34,-0.35 0.35,-0.35 0.35,-0.84 0,-0.5 0,-0.48 -0.31,-0.9 -0.31,-0.42 -0.31,-0.41 -0.86,-0.65 -0.54,-0.22 -0.43,-0.18 -1.16,-0.2 -0.74,-0.03 2.04,-4.13 3.81,0 z"
     id="path62"
     inkscape:connector-curvature="0"
     style="fill:#000000;fill-rule:evenodd;stroke-width:0.6;stroke-miterlimit:4;stroke-dasharray:none" />
  <path
     d="m 73.73,71.99 0,0.3 -0.52,0.05 -0.85,0.2 -0.32,0.16 -0.33,0.15 -0.65,0.47 -0.32,0.32 -0.32,0.32 -0.53,0.7 -0.21,0.39 -0.21,0.39 -0.35,0.93 -0.14,0.53 0.56,-0.39 1.14,-0.39 0.56,0 0.55,0 0.94,0.44 0.4,0.44 0.4,0.44 0.4,1.13 0,0.69 0,0.66 -0.4,1.22 -0.4,0.55 -0.49,0.66 -1.29,0.67 -0.8,0 -0.54,0 -0.93,-0.36 -0.38,-0.36 -0.74,-0.7 -0.75,-1.82 0,-1.11 0,-0.72 0.29,-1.35 0.29,-0.64 0.28,-0.65 0.82,-1.14 0.53,-0.49 0.53,-0.5 1.02,-0.67 0.49,-0.17 0.49,-0.18 0.9,-0.17 0.42,0 0.46,0 z m -4.89,5.49 -0.07,0.52 -0.07,0.86 0,0.32 0,0.38 0.14,0.82 0.14,0.44 0.14,0.44 0.41,0.7 0.28,0.26 0.2,0.18 0.49,0.18 0.28,0 0.34,0 0.62,-0.32 0.26,-0.32 0.27,-0.32 0.27,-0.92 0,-0.59 0,-0.67 -0.27,-1.16 -0.26,-0.49 -0.27,-0.49 -0.76,-0.49 -0.49,0 -0.15,0 -0.32,0.06 -0.17,0.07 -0.17,0.06 -0.5,0.27 -0.34,0.21 0,0 z"
     id="path64"
     inkscape:connector-curvature="0"
     style="fill:#000000;fill-rule:evenodd;stroke-width:0.6;stroke-miterlimit:4;stroke-dasharray:none" />
  <path
     d="m 68.15,35.99 5.68,0 0,0.29 -3.53,10.56 -0.87,0 3.17,-9.57 -2.93,0 -0.44,0 -0.63,0.1 -0.19,0.11 -0.33,0.18 -0.53,0.55 -0.2,0.38 -0.22,-0.09 1.02,-2.51 z"
     id="path66"
     inkscape:connector-curvature="0"
     style="fill:#000000;fill-rule:evenodd;stroke-width:0.6;stroke-miterlimit:4;stroke-dasharray:none" />
  <path
     d="m 63.74,58.87 0.39,-0.4 0.46,-0.45 0.07,-0.06 0.18,-0.15 0.38,-0.23 0.21,-0.08 0.2,-0.09 0.4,-0.08 0.2,0 0.34,0 0.58,0.2 0.25,0.19 0.24,0.2 0.33,0.57 0.08,0.38 0.4,-0.48 0.68,-0.62 0.28,-0.14 0.28,-0.15 0.57,-0.15 0.29,0 0.29,0 0.5,0.15 0.23,0.15 0.22,0.14 0.35,0.48 0.13,0.34 0.08,0.22 0.09,0.72 0,0.48 0,3.1 0,0.33 0.05,0.46 0.05,0.13 0.04,0.09 0.14,0.14 0.11,0.06 0.1,0.06 0.35,0.06 0.24,0 0,0.29 -3.55,0 0,-0.29 0.15,0 0.23,0 0.36,-0.09 0.13,-0.09 0.09,-0.06 0.13,-0.2 0.04,-0.13 0.02,-0.07 0.01,-0.38 0,-0.31 0,-3.09 0,-0.44 -0.1,-0.62 -0.11,-0.18 -0.15,-0.25 -0.49,-0.25 -0.33,0 -0.21,0 -0.42,0.1 -0.21,0.11 -0.2,0.1 -0.51,0.38 -0.3,0.29 -0.01,0.08 0.01,0.34 0,3.43 0,0.36 0.04,0.46 0.04,0.09 0.04,0.09 0.16,0.15 0.11,0.06 0.11,0.06 0.39,0.06 0.27,0 0,0.29 -3.63,0 0,-0.29 0.3,0 0.4,-0.07 0.12,-0.07 0.11,-0.07 0.15,-0.21 0.04,-0.14 0.02,-0.07 0.02,-0.38 0,-0.32 0,-3.09 0,-0.44 -0.13,-0.63 -0.12,-0.2 -0.18,-0.25 -0.48,-0.26 -0.31,0 -0.21,0 -0.41,0.12 -0.21,0.11 -0.33,0.18 -0.5,0.39 -0.17,0.22 0,3.85 0,0.35 0.05,0.46 0.05,0.1 0.04,0.11 0.15,0.16 0.09,0.05 0.1,0.05 0.39,0.05 0.29,0 0,0.29 -3.56,0 0,-0.29 0.25,0 0.35,-0.05 0.09,-0.05 0.1,-0.05 0.15,-0.17 0.05,-0.12 0.05,-0.11 0.05,-0.45 0,-0.33 0,-2.76 0,-0.59 L 62.4,59 62.36,58.83 62.33,58.7 l -0.08,-0.18 -0.06,-0.04 -0.06,-0.05 -0.16,-0.05 -0.1,0 -0.11,0 -0.26,0.06 -0.16,0.05 -0.11,-0.28 2.17,-0.88 0.34,0 0,1.54 z"
     id="path68"
     inkscape:connector-curvature="0"
     style="fill:#000000;fill-rule:evenodd;stroke-width:0.6;stroke-miterlimit:4;stroke-dasharray:none" />
  <path
     d="m 80.94,61.18 -4.14,0 -0.72,1.67 -0.13,0.3 -0.13,0.47 0,0.15 0,0.12 0.11,0.21 0.12,0.09 0.11,0.1 0.5,0.12 0.39,0.02 0,0.3 -3.35,0 0,-0.3 0.33,-0.06 0.43,-0.15 0.1,-0.09 0.2,-0.19 0.44,-0.76 0.24,-0.58 3.75,-8.74 0.28,0 3.7,8.84 0.23,0.53 0.4,0.69 0.18,0.16 0.19,0.16 0.5,0.17 0.33,0.02 0,0.3 -4.19,0 0,-0.3 0.31,-0.01 0.43,-0.11 0.11,-0.09 0.12,-0.09 0.11,-0.22 0,-0.13 0,-0.17 -0.16,-0.54 -0.16,-0.37 -0.63,-1.52 z m -0.24,-0.58 -1.8,-4.29 -1.85,4.29 3.65,0 z"
     id="path70"
     inkscape:connector-curvature="0"
     style="fill:#000000;fill-rule:evenodd;stroke-width:0.6;stroke-miterlimit:4;stroke-dasharray:none" />
  <path
     d="m 79.86,308.61 4.05,0 0,1.19 -4.05,0 0,-1.19 z"
     id="path72"
     inkscape:connector-curvature="0"
     style="fill:#000000;fill-rule:evenodd;stroke-width:0.6;stroke-miterlimit:4;stroke-dasharray:none" />
  <path
     d="m 85.37,304.21 0.23,-0.54 0.57,-0.83 0.35,-0.29 0.34,-0.29 0.87,-0.29 0.52,0 0.63,0 0.98,0.41 0.34,0.42 0.26,0.31 0.26,0.66 0,0.35 0,0.58 -0.73,1.2 -0.73,0.62 0.49,0.19 0.74,0.55 0.25,0.35 0.25,0.36 0.25,0.84 0,0.48 0,0.69 -0.44,1.19 -0.43,0.51 -0.58,0.66 -1.65,0.66 -1.09,0 -0.53,0 -0.73,-0.14 -0.2,-0.13 -0.19,-0.14 -0.19,-0.28 0,-0.16 0,-0.11 0.09,-0.2 0.09,-0.09 0.09,-0.08 0.22,-0.09 0.13,0 0.1,0 0.2,0.03 0.1,0.03 0.07,0.02 0.3,0.15 0.23,0.12 0.24,0.12 0.32,0.15 0.09,0.02 0.15,0.05 0.31,0.04 0.16,0 0.4,0 0.69,-0.31 0.3,-0.31 0.29,-0.31 0.3,-0.73 0,-0.42 0,-0.31 -0.14,-0.6 -0.13,-0.3 -0.11,-0.22 -0.22,-0.33 -0.12,-0.11 -0.17,-0.16 -0.46,-0.28 -0.29,-0.13 -0.3,-0.13 -0.6,-0.12 -0.3,0 -0.25,0 0,-0.24 0.31,-0.04 0.62,-0.23 0.31,-0.18 0.31,-0.18 0.45,-0.45 0.14,-0.25 0.14,-0.26 0.15,-0.57 0,-0.31 0,-0.4 -0.26,-0.65 -0.25,-0.25 -0.25,-0.25 -0.63,-0.25 -0.38,0 -0.6,0 -1.02,0.65 -0.4,0.65 -0.26,-0.12 z"
     id="path74"
     inkscape:connector-curvature="0"
     style="fill:#000000;fill-rule:evenodd;stroke-width:0.6;stroke-miterlimit:4;stroke-dasharray:none" />
  <path
     d="m 152.29,308.61 4.06,0 0,1.19 -4.06,0 0,-1.19 z"
     id="path76"
     inkscape:connector-curvature="0"
     style="fill:#000000;fill-rule:evenodd;stroke-width:0.6;stroke-miterlimit:4;stroke-dasharray:none" />
  <path
     d="m 164.35,310.76 -0.74,2.05 -6.27,0 0,-0.29 1.38,-1.26 1.95,-2.06 0.56,-0.8 0.57,-0.8 0.56,-1.46 0,-0.67 0,-0.5 -0.31,-0.83 -0.31,-0.33 -0.31,-0.32 -0.74,-0.33 -0.43,0 -0.39,0 -0.71,0.23 -0.31,0.23 -0.31,0.23 -0.46,0.68 -0.15,0.44 -0.29,0 0.1,-0.73 0.5,-1.11 0.41,-0.39 0.4,-0.38 1.02,-0.39 0.6,0 0.65,0 1.08,0.41 0.43,0.42 0.43,0.41 0.44,0.98 0,0.56 0,0.41 -0.19,0.8 -0.19,0.41 -0.29,0.63 -0.94,1.35 -0.65,0.71 -0.98,1.06 -1.22,1.28 -0.24,0.22 2.78,0 0.42,0 0.59,-0.03 0.17,-0.03 0.17,-0.03 0.31,-0.13 0.14,-0.09 0.14,-0.1 0.23,-0.27 0.11,-0.18 0.29,0 z"
     id="path78"
     inkscape:connector-curvature="0"
     style="fill:#000000;fill-rule:evenodd;stroke-width:0.6;stroke-miterlimit:4;stroke-dasharray:none" />
  <path
     d="m 230.15,308.61 4.06,0 0,1.19 -4.06,0 0,-1.19 z"
     id="path80"
     inkscape:connector-curvature="0"
     style="fill:#000000;fill-rule:evenodd;stroke-width:0.6;stroke-miterlimit:4;stroke-dasharray:none" />
  <path
     d="m 236.73,303.23 2.6,-1.26 0.25,0 0,8.97 0,0.44 0.04,0.56 0.04,0.11 0.04,0.11 0.15,0.17 0.12,0.05 0.11,0.06 0.48,0.07 0.36,0.01 0,0.29 -3.99,0 0,-0.29 0.38,-0.01 0.48,-0.07 0.11,-0.05 0.11,-0.06 0.15,-0.15 0.04,-0.1 0.05,-0.09 0.04,-0.57 0,-0.48 0,-5.73 0,-0.58 -0.04,-0.75 -0.04,-0.17 -0.03,-0.12 -0.1,-0.19 -0.07,-0.06 -0.07,-0.06 -0.18,-0.05 -0.1,0 -0.14,0 -0.41,0.12 -0.26,0.12 -0.12,-0.24 z"
     id="path82"
     inkscape:connector-curvature="0"
     style="fill:#000000;fill-rule:evenodd;stroke-width:0.6;stroke-miterlimit:4;stroke-dasharray:none" />
  <path
     d="m 300.7,307.56 0,-0.91 0.28,-1.56 0.27,-0.66 0.27,-0.66 0.73,-0.97 0.46,-0.32 0.35,-0.26 0.73,-0.25 0.37,0 0.62,0 1.09,0.62 0.49,0.62 0.61,0.77 0.6,2.1 0,1.32 0,0.92 -0.26,1.57 -0.27,0.65 -0.27,0.64 -0.68,0.94 -0.41,0.29 -0.41,0.29 -0.8,0.3 -0.38,0 -0.76,0 -1.27,-0.9 -0.51,-0.9 -0.42,-0.75 -0.43,-1.83 0,-1.06 0,0 z m 1.53,0.2 0,1.1 0.27,1.79 0.28,0.69 0.22,0.58 0.67,0.59 0.44,0 0.21,0 0.44,-0.19 0.23,-0.19 0.23,-0.19 0.34,-0.64 0.12,-0.45 0.18,-0.67 0.18,-1.9 0,-1.22 0,-0.91 -0.19,-1.52 -0.19,-0.61 -0.14,-0.45 -0.36,-0.63 -0.23,-0.19 -0.16,-0.13 -0.39,-0.13 -0.22,0 -0.27,0 -0.47,0.24 -0.21,0.24 -0.29,0.32 -0.38,1.02 -0.1,0.7 -0.1,0.7 -0.11,1.37 0,0.68 0,0 z"
     id="path84"
     inkscape:connector-curvature="0"
     style="fill:#000000;fill-rule:evenodd;stroke-width:0.6;stroke-miterlimit:4;stroke-dasharray:none" />
  <path
     d="m 275.29,302.18 0,0.3 -0.28,0.05 -0.43,0.18 -0.14,0.13 -0.21,0.19 -0.37,0.58 -0.16,0.39 -3.7,9.05 -0.29,0 -3.97,-9.16 -0.16,-0.35 -0.21,-0.43 -0.06,-0.08 -0.1,-0.12 -0.24,-0.19 -0.15,-0.07 -0.14,-0.06 -0.39,-0.09 -0.24,-0.02 0,-0.3 4.34,0 0,0.3 -0.37,0.03 -0.48,0.13 -0.11,0.09 -0.11,0.09 -0.11,0.23 0,0.14 0,0.2 0.18,0.61 0.18,0.41 2.71,6.24 2.5,-6.16 0.19,-0.45 0.18,-0.63 0,-0.18 0,-0.11 -0.11,-0.22 -0.12,-0.1 -0.11,-0.11 -0.38,-0.15 -0.27,-0.04 -0.02,0 -0.07,-0.01 -0.05,-0.01 0,-0.3 3.27,0 z"
     id="path86"
     inkscape:connector-curvature="0"
     style="fill:#000000;fill-rule:evenodd;stroke-width:0.6;stroke-miterlimit:4;stroke-dasharray:none" />
  <path
     d="m 50.23,59.29 0,39.84"
     id="path88"
     inkscape:connector-curvature="0"
     style="fill:none;stroke:#000000;stroke-width:0.6;stroke-miterlimit:4;stroke-dasharray:none" />
  <path
     d="M 50.23,52.05 46.61,64.73"
     id="path90"
     inkscape:connector-curvature="0"
     style="fill:none;stroke:#000000;stroke-width:0.6;stroke-miterlimit:4;stroke-dasharray:none" />
  <path
     d="m 46.61,64.73 7.24,0"
     id="path92"
     inkscape:connector-curvature="0"
     style="fill:none;stroke:#000000;stroke-width:0.6;stroke-miterlimit:4;stroke-dasharray:none" />
  <path
     d="M 53.85,64.73 50.23,52.05"
     id="path94"
     inkscape:connector-curvature="0"
     style="fill:none;stroke:#000000;stroke-width:0.6;stroke-miterlimit:4;stroke-dasharray:none" />
  <path
     d="m 50.23,64.73 0,-12.68 -3.62,12.68 3.62,0 z"
     id="path96"
     inkscape:connector-curvature="0"
     style="fill:#000000;fill-rule:evenodd;stroke-width:0.6;stroke-miterlimit:4;stroke-dasharray:none" />
  <path
     d="m 50.23,64.73 3.62,0 -3.62,-12.68 0,12.68 z"
     id="path98"
     inkscape:connector-curvature="0"
     style="fill:#000000;fill-rule:evenodd;stroke-width:0.6;stroke-miterlimit:4;stroke-dasharray:none" />
  <path
     d="m 292.88,323.68 -12.67,-3.63"
     id="path100"
     inkscape:connector-curvature="0"
     style="fill:none;stroke:#000000;stroke-width:0.6;stroke-miterlimit:4;stroke-dasharray:none" />
  <path
     d="m 280.21,320.05 0,7.25"
     id="path102"
     inkscape:connector-curvature="0"
     style="fill:none;stroke:#000000;stroke-width:0.6;stroke-miterlimit:4;stroke-dasharray:none" />
  <path
     d="m 280.21,327.3 12.67,-3.62"
     id="path104"
     inkscape:connector-curvature="0"
     style="fill:none;stroke:#000000;stroke-width:0.6;stroke-miterlimit:4;stroke-dasharray:none" />
  <path
     d="m 283.83,323.68 -39.84,0"
     id="path106"
     inkscape:connector-curvature="0"
     style="fill:none;stroke:#000000;stroke-width:0.6;stroke-miterlimit:4;stroke-dasharray:none" />
  <path
     d="m 280.21,327.3 12.67,-3.62 -12.67,-3.63 0,7.25 z"
     id="path108"
     inkscape:connector-curvature="0"
     style="fill:#000000;fill-rule:evenodd;stroke-width:0.6;stroke-miterlimit:4;stroke-dasharray:none" />
  <path
     d="m 46.88,116.96 -0.08,0.28 -4.32,0 0.11,-0.28 0.33,-0.01 0.43,-0.05 0.11,-0.05 0.17,-0.07 0.26,-0.18 0.08,-0.12 0.13,-0.19 0.27,-0.66 0.13,-0.47 1.85,-6.42 0.11,-0.4 0.12,-0.6 0,-0.21 0,-0.1 -0.05,-0.17 -0.05,-0.07 -0.05,-0.07 -0.16,-0.11 -0.1,-0.04 -0.1,-0.03 -0.41,-0.04 -0.3,0 0.09,-0.28 4.06,0 -0.08,0.28 -0.25,-0.01 -0.38,0.06 -0.12,0.07 -0.17,0.08 -0.27,0.25 -0.1,0.15 -0.09,0.16 -0.23,0.7 -0.15,0.54 -1.84,6.41 -0.13,0.41 -0.12,0.52 0,0.11 0,0.09 0.04,0.15 0.05,0.06 0.05,0.07 0.16,0.09 0.11,0.04 0.11,0.03 0.44,0.06 0.34,0.02 0,0 z"
     id="path110"
     inkscape:connector-curvature="0"
     style="fill:#000000;fill-rule:evenodd;stroke-width:0.6;stroke-miterlimit:4;stroke-dasharray:none" />
  <path
     d="m 218.95,316.67 4.49,0 -0.09,0.28 -0.35,0.01 -0.49,0.07 -0.14,0.05 -0.15,0.06 -0.25,0.2 -0.11,0.15 -0.1,0.15 -0.22,0.54 -0.11,0.39 -1.17,3.97 -0.16,0.53 -0.18,0.69 -0.03,0.17 -0.05,0.22 -0.05,0.43 0,0.19 0,0.44 0.37,0.73 0.37,0.29 0.36,0.3 0.98,0.3 0.62,0 0.4,0 0.71,-0.15 0.31,-0.14 0.31,-0.15 0.52,-0.41 0.22,-0.27 0.22,-0.26 0.4,-0.72 0.18,-0.45 0.19,-0.45 0.31,-0.91 0.14,-0.47 0.93,-3.24 0.17,-0.61 0.18,-0.79 0,-0.19 0,-0.13 -0.12,-0.22 -0.12,-0.09 -0.12,-0.09 -0.48,-0.12 -0.37,-0.02 0.09,-0.28 3.37,0 -0.09,0.28 -0.29,0 -0.43,0.06 -0.13,0.06 -0.13,0.06 -0.23,0.2 -0.1,0.15 -0.1,0.15 -0.22,0.57 -0.12,0.43 -1.19,4.14 -0.29,1.01 -0.52,1.42 -0.23,0.41 -0.22,0.41 -0.7,0.69 -0.48,0.27 -0.47,0.28 -1.17,0.28 -0.7,0 -0.8,0 -1.3,-0.46 -0.5,-0.45 -0.49,-0.45 -0.49,-1.04 0,-0.58 0,-0.23 0.04,-0.49 0.04,-0.27 0.03,-0.17 0.16,-0.59 0.12,-0.43 1.07,-3.61 0.11,-0.4 0.11,-0.57 0,-0.19 0,-0.14 -0.11,-0.23 -0.11,-0.08 -0.11,-0.08 -0.56,-0.1 -0.46,-0.03 0.08,-0.28 z"
     id="path112"
     inkscape:connector-curvature="0"
     style="fill:#000000;fill-rule:evenodd;stroke-width:0.6;stroke-miterlimit:4;stroke-dasharray:none" />
  <path
     d="m 235.57,322.23 0.22,2.68 -0.22,0 -0.16,-0.5 -0.43,-0.76 -0.27,-0.25 -0.38,-0.36 -0.97,-0.37 -0.6,0 -0.81,0 -1.24,0.64 -0.42,0.64 -0.36,0.55 -0.35,1.29 0,0.74 0,0.61 0.23,1.11 0.24,0.5 0.23,0.5 0.62,0.73 0.38,0.24 0.38,0.23 0.78,0.23 0.4,0 0.24,0 0.45,-0.06 0.22,-0.06 0.22,-0.05 0.43,-0.18 0.2,-0.12 0,-2.45 0,-0.32 -0.05,-0.42 -0.05,-0.1 -0.05,-0.1 -0.15,-0.15 -0.1,-0.05 -0.1,-0.05 -0.36,-0.05 -0.25,0 0,-0.24 3.29,0 0,0.24 -0.15,0 -0.25,0 -0.34,0.16 -0.09,0.16 -0.06,0.12 -0.06,0.46 0,0.34 0,2.6 -0.36,0.19 -0.72,0.29 -0.35,0.09 -0.35,0.09 -0.78,0.09 -0.43,0 -1.23,0 -1.87,-0.79 -0.64,-0.79 -0.48,-0.59 -0.48,-1.37 0,-0.77 0,-0.56 0.27,-1.08 0.27,-0.51 0.32,-0.61 0.88,-0.94 0.56,-0.33 0.46,-0.27 1.11,-0.27 0.63,0 0.24,0 0.42,0.03 0.19,0.04 0.19,0.04 0.53,0.17 0.35,0.12 0.18,0.07 0.23,0.07 0.06,0 0.06,0 0.1,-0.06 0.05,-0.05 0.04,-0.06 0.05,-0.21 0.01,-0.16 0.23,0 z"
     id="path114"
     inkscape:connector-curvature="0"
     style="fill:#000000;fill-rule:evenodd;stroke-width:0.6;stroke-miterlimit:4;stroke-dasharray:none" />
  <path
     d="m 242.86,322.23 0,2.94 -0.24,0 -0.05,-0.43 -0.21,-0.67 -0.14,-0.25 -0.15,-0.25 -0.41,-0.4 -0.27,-0.14 -0.27,-0.15 -0.56,-0.15 -0.29,0 -0.32,0 -0.54,0.2 -0.22,0.2 -0.21,0.2 -0.21,0.45 0,0.25 0,0.2 0.13,0.35 0.14,0.16 0.19,0.24 0.93,0.62 0.73,0.39 0.6,0.32 0.81,0.49 0.22,0.17 0.21,0.18 0.34,0.4 0.12,0.23 0.11,0.23 0.12,0.49 0,0.25 0,0.48 -0.37,0.83 -0.38,0.35 -0.37,0.35 -0.97,0.35 -0.58,0 -0.19,0 -0.35,-0.03 -0.16,-0.03 -0.1,-0.01 -0.4,-0.12 -0.31,-0.1 -0.3,-0.1 -0.39,-0.1 -0.08,0 -0.08,0 -0.12,0.05 -0.05,0.05 -0.04,0.05 -0.07,0.19 -0.02,0.15 -0.24,0 0,-2.91 0.24,0 0.08,0.45 0.22,0.69 0.14,0.23 0.14,0.22 0.42,0.38 0.28,0.15 0.28,0.15 0.63,0.15 0.34,0 0.39,0 0.62,-0.2 0.22,-0.21 0.23,-0.21 0.23,-0.49 0,-0.28 0,-0.15 -0.09,-0.32 -0.08,-0.16 -0.09,-0.16 -0.27,-0.3 -0.18,-0.14 -0.12,-0.09 -0.67,-0.4 -0.55,-0.3 -0.55,-0.31 -0.77,-0.49 -0.23,-0.18 -0.23,-0.18 -0.36,-0.4 -0.11,-0.22 -0.12,-0.22 -0.12,-0.48 0,-0.26 0,-0.46 0.35,-0.79 0.35,-0.33 0.35,-0.33 0.89,-0.33 0.55,0 0.34,0 0.71,0.16 0.38,0.17 0.18,0.08 0.25,0.07 0.07,0 0.08,0 0.13,-0.04 0.06,-0.05 0.05,-0.05 0.08,-0.2 0.03,-0.14 0.24,0 z"
     id="path116"
     inkscape:connector-curvature="0"
     style="fill:#000000;fill-rule:evenodd;stroke-width:0.6;stroke-miterlimit:4;stroke-dasharray:none" />
  <path
     d="m 48.65,120.86 0,-0.23 0.31,0 0.27,0 0.38,-0.17 0.12,-0.18 0.06,-0.1 0.07,-0.46 0,-0.36 0,-5.49 0,-0.4 -0.08,-0.5 -0.09,-0.1 -0.12,-0.14 -0.37,-0.13 -0.24,0 -0.31,0 0,-0.24 3.45,0 0.96,0 1.45,0.22 0.49,0.21 0.5,0.22 0.8,0.72 0.3,0.51 0.3,0.5 0.31,1.17 0,0.66 0,0.89 -0.54,1.48 -0.54,0.59 -0.61,0.67 -1.84,0.66 -1.24,0 -3.79,0 z m 2.41,-0.62 0.4,0.09 0.67,0.09 0.27,0 0.73,0 1.2,-0.51 0.48,-0.51 0.48,-0.51 0.48,-1.39 0,-0.87 0,-0.88 -0.48,-1.39 -0.48,-0.5 -0.48,-0.51 -1.23,-0.51 -0.75,0 -0.28,0 -0.65,0.09 -0.36,0.09 0,7.22 z"
     id="path118"
     inkscape:connector-curvature="0"
     style="fill:#000000;fill-rule:evenodd;stroke-width:0.6;stroke-miterlimit:4;stroke-dasharray:none" />
  <path
     d="m 92.19,48.43 4.48,0 -0.09,0.28 -0.34,0.01 -0.49,0.07 -0.15,0.05 -0.15,0.06 -0.25,0.2 -0.1,0.15 -0.11,0.14 -0.21,0.54 -0.12,0.4 -1.17,3.97 -0.15,0.52 -0.19,0.7 -0.03,0.16 -0.04,0.23 -0.05,0.43 0,0.19 0,0.43 0.36,0.73 0.37,0.3 0.37,0.3 0.98,0.3 0.61,0 0.4,0 0.71,-0.15 0.31,-0.15 0.31,-0.14 0.53,-0.41 0.22,-0.27 0.22,-0.26 0.4,-0.72 0.18,-0.45 0.18,-0.45 0.32,-0.92 0.13,-0.46 0.93,-3.25 0.18,-0.6 0.17,-0.8 0,-0.18 0,-0.13 -0.12,-0.22 -0.11,-0.09 -0.12,-0.1 -0.49,-0.11 -0.36,-0.02 0.08,-0.28 3.38,0 -0.09,0.28 -0.3,0 -0.43,0.06 -0.13,0.06 -0.13,0.05 -0.23,0.21 -0.1,0.15 -0.1,0.15 -0.22,0.57 -0.12,0.43 -1.19,4.14 -0.29,1 -0.51,1.42 -0.23,0.41 -0.23,0.42 -0.7,0.68 -0.47,0.28 -0.47,0.28 -1.17,0.27 -0.7,0 -0.81,0 -1.3,-0.45 -0.49,-0.45 -0.5,-0.45 -0.49,-1.04 0,-0.58 0,-0.23 0.04,-0.5 0.05,-0.26 0.03,-0.17 0.15,-0.6 0.13,-0.42 1.07,-3.62 0.11,-0.39 0.11,-0.57 0,-0.19 0,-0.14 -0.11,-0.23 -0.12,-0.08 -0.11,-0.08 -0.56,-0.1 -0.45,-0.03 0.08,-0.28 z"
     id="path120"
     inkscape:connector-curvature="0"
     style="fill:#000000;fill-rule:evenodd;stroke-width:0.6;stroke-miterlimit:4;stroke-dasharray:none" />
  <path
     d="m 123.53,52.14 8.44,0 0,0.64 -8.44,0 0,-0.64 z"
     id="path122"
     inkscape:connector-curvature="0"
     style="fill:#000000;fill-rule:evenodd;stroke-width:1.2;stroke-miterlimit:4;stroke-dasharray:none" />
  <path
     d="m 123.53,54.69 8.44,0 0,0.65 -8.44,0 0,-0.65 z"
     id="path124"
     inkscape:connector-curvature="0"
     style="fill:#000000;fill-rule:evenodd;stroke-width:1.2;stroke-miterlimit:4;stroke-dasharray:none" />
  <path
     d="m 138.18,49.47 2.59,-1.26 0.25,0 0,8.97 0,0.45 0.04,0.55 0.04,0.11 0.04,0.11 0.15,0.17 0.12,0.06 0.12,0.06 0.47,0.06 0.36,0.01 0,0.3 -3.99,0 0,-0.3 0.38,-0.01 0.48,-0.06 0.11,-0.06 0.11,-0.05 0.15,-0.16 0.04,-0.09 0.05,-0.1 0.04,-0.57 0,-0.48 0,-5.73 0,-0.58 -0.04,-0.75 -0.04,-0.16 -0.03,-0.13 -0.1,-0.18 -0.07,-0.06 -0.07,-0.06 -0.18,-0.06 -0.1,0 -0.14,0 -0.41,0.12 -0.26,0.12 -0.11,-0.24 z"
     id="path126"
     inkscape:connector-curvature="0"
     style="fill:#000000;fill-rule:evenodd;stroke-width:1.2;stroke-miterlimit:4;stroke-dasharray:none" />
  <path
     d="m 151.29,48.43 -0.61,1.34 -3.2,0 -0.7,1.42 1.04,0.15 1.65,0.78 0.6,0.61 0.53,0.54 0.52,1.25 0,0.72 0,0.42 -0.17,0.77 -0.17,0.36 -0.17,0.36 -0.43,0.6 -0.26,0.25 -0.26,0.25 -0.58,0.41 -0.31,0.15 -0.45,0.21 -0.93,0.22 -0.47,0 -0.48,0 -0.7,-0.16 -0.21,-0.16 -0.22,-0.17 -0.22,-0.35 0,-0.2 0,-0.11 0.09,-0.19 0.09,-0.09 0.09,-0.08 0.23,-0.09 0.14,0 0.1,0 0.18,0.04 0.07,0.03 0.08,0.03 0.26,0.16 0.18,0.13 0.3,0.2 0.59,0.2 0.3,0.01 0.46,0 0.81,-0.35 0.34,-0.35 0.35,-0.34 0.35,-0.85 0,-0.5 0,-0.48 -0.31,-0.9 -0.31,-0.41 -0.31,-0.42 -0.86,-0.64 -0.54,-0.23 -0.43,-0.18 -1.16,-0.2 -0.74,-0.03 2.04,-4.13 3.81,0 z"
     id="path128"
     inkscape:connector-curvature="0"
     style="fill:#000000;fill-rule:evenodd;stroke-width:1.2;stroke-miterlimit:4;stroke-dasharray:none" />
  <path
     d="m 167.74,48.43 0,0.29 -0.28,0.05 -0.43,0.18 -0.14,0.13 -0.21,0.19 -0.37,0.58 -0.16,0.4 -3.69,9.04 -0.3,0 -3.97,-9.16 -0.15,-0.35 -0.22,-0.43 -0.06,-0.07 -0.1,-0.12 -0.24,-0.19 -0.14,-0.07 -0.15,-0.07 -0.38,-0.09 -0.25,-0.02 0,-0.29 4.34,0 0,0.29 -0.37,0.04 -0.48,0.12 -0.11,0.09 -0.11,0.09 -0.11,0.24 0,0.14 0,0.19 0.18,0.61 0.18,0.42 2.71,6.23 2.5,-6.15 0.19,-0.46 0.18,-0.63 0,-0.17 0,-0.12 -0.11,-0.22 -0.11,-0.1 -0.12,-0.1 -0.38,-0.15 -0.27,-0.04 -0.02,-0.01 -0.07,-0.01 -0.05,-0.01 0,-0.29 3.27,0 z"
     id="path130"
     inkscape:connector-curvature="0"
     style="fill:#000000;fill-rule:evenodd;stroke-width:0.6;stroke-miterlimit:4;stroke-dasharray:none" />
  <path
     d="m 102.86,62.92 0,-0.24 0.32,0 0.27,0 0.38,-0.17 0.11,-0.17 0.07,-0.11 0.07,-0.46 0,-0.36 0,-5.49 0,-0.4 -0.09,-0.49 -0.09,-0.1 -0.12,-0.14 -0.36,-0.14 -0.24,0 -0.32,0 0,-0.23 3.46,0 0.95,0 1.45,0.21 0.5,0.22 0.49,0.21 0.8,0.73 0.31,0.5 0.3,0.5 0.3,1.17 0,0.66 0,0.89 -0.54,1.48 -0.54,0.6 -0.6,0.66 -1.84,0.67 -1.24,0 -3.8,0 z m 2.42,-0.62 0.4,0.08 0.66,0.09 0.27,0 0.73,0 1.21,-0.51 0.48,-0.51 0.48,-0.51 0.48,-1.38 0,-0.88 0,-0.88 -0.48,-1.38 -0.48,-0.51 -0.48,-0.51 -1.24,-0.51 -0.75,0 -0.28,0 -0.64,0.09 -0.36,0.1 0,7.22 z"
     id="path132"
     inkscape:connector-curvature="0"
     style="fill:#000000;fill-rule:evenodd;stroke-width:0.6;stroke-miterlimit:4;stroke-dasharray:none" />
  <path
     d="m 117.8,54.22 0,2.94 -0.24,0 -0.05,-0.42 -0.21,-0.67 -0.14,-0.25 -0.15,-0.25 -0.41,-0.4 -0.27,-0.15 -0.27,-0.14 -0.56,-0.15 -0.29,0 -0.32,0 -0.54,0.2 -0.21,0.2 -0.22,0.2 -0.21,0.45 0,0.25 0,0.2 0.13,0.35 0.14,0.16 0.19,0.23 0.93,0.63 0.73,0.39 0.6,0.32 0.81,0.49 0.22,0.17 0.22,0.17 0.33,0.4 0.12,0.24 0.12,0.23 0.11,0.48 0,0.26 0,0.48 -0.37,0.83 -0.38,0.35 -0.37,0.35 -0.96,0.35 -0.59,0 -0.19,0 -0.35,-0.03 -0.16,-0.03 -0.1,-0.02 -0.4,-0.11 -0.3,-0.1 -0.31,-0.1 -0.39,-0.1 -0.08,0 -0.08,0 -0.12,0.05 -0.04,0.05 -0.05,0.04 -0.07,0.2 -0.02,0.15 -0.23,0 0,-2.92 0.23,0 0.08,0.46 0.22,0.69 0.14,0.22 0.14,0.23 0.42,0.38 0.28,0.15 0.29,0.15 0.62,0.15 0.34,0 0.39,0 0.62,-0.21 0.23,-0.2 0.22,-0.21 0.23,-0.49 0,-0.28 0,-0.16 -0.09,-0.31 -0.08,-0.16 -0.09,-0.16 -0.27,-0.3 -0.18,-0.14 -0.12,-0.09 -0.67,-0.4 -0.55,-0.31 -0.54,-0.3 -0.78,-0.49 -0.23,-0.18 -0.23,-0.18 -0.35,-0.4 -0.12,-0.22 -0.12,-0.22 -0.12,-0.48 0,-0.27 0,-0.46 0.35,-0.78 0.35,-0.33 0.35,-0.34 0.9,-0.33 0.54,0 0.34,0 0.72,0.17 0.37,0.17 0.18,0.07 0.25,0.08 0.07,0 0.08,0 0.14,-0.05 0.05,-0.05 0.05,-0.04 0.08,-0.2 0.03,-0.15 0.24,0 z"
     id="path134"
     inkscape:connector-curvature="0"
     style="fill:#000000;fill-rule:evenodd;stroke-width:1.2;stroke-miterlimit:4;stroke-dasharray:none" />
  <path
     d="m 94.8,70.16 8.16,0 -0.87,2.82 -0.29,0 0.07,-0.31 0.07,-0.56 0,-0.24 0,-0.28 -0.17,-0.44 -0.17,-0.14 -0.13,-0.11 -0.68,-0.11 -0.54,0 -0.87,0 -2.13,7.51 -0.2,0.64 -0.2,0.78 0,0.15 0,0.14 0.13,0.23 0.12,0.08 0.13,0.09 0.44,0.09 0.32,0 0.36,0 -0.09,0.29 -4.57,0 0.08,-0.29 0.21,0 0.3,0 0.47,-0.1 0.17,-0.09 0.11,-0.07 0.21,-0.24 0.09,-0.18 0.09,-0.17 0.26,-0.74 0.16,-0.57 2.17,-7.55 -0.6,0 -0.47,0 -0.77,0.12 -0.29,0.12 -0.29,0.11 -0.47,0.34 -0.18,0.23 -0.18,0.22 -0.3,0.63 -0.11,0.42 -0.29,0 0.74,-2.82 z"
     id="path136"
     inkscape:connector-curvature="0"
     style="fill:#000000;fill-rule:evenodd;stroke-width:0.6;stroke-miterlimit:4;stroke-dasharray:none" />
  <path
     d="m 109.82,73.87 8.44,0 0,0.64 -8.44,0 0,-0.64 z"
     id="path138"
     inkscape:connector-curvature="0"
     style="fill:#000000;fill-rule:evenodd;stroke-width:0.6;stroke-miterlimit:4;stroke-dasharray:none" />
  <path
     d="m 109.82,76.42 8.44,0 0,0.65 -8.44,0 0,-0.65 z"
     id="path140"
     inkscape:connector-curvature="0"
     style="fill:#000000;fill-rule:evenodd;stroke-width:0.6;stroke-miterlimit:4;stroke-dasharray:none" />
  <path
     d="m 129.95,78.74 -0.74,2.05 -6.28,0 0,-0.3 1.39,-1.26 1.95,-2.06 0.56,-0.8 0.57,-0.8 0.56,-1.46 0,-0.66 0,-0.51 -0.31,-0.83 -0.31,-0.32 -0.31,-0.33 -0.74,-0.32 -0.43,0 -0.39,0 -0.71,0.23 -0.31,0.23 -0.31,0.23 -0.46,0.67 -0.15,0.44 -0.29,0 0.1,-0.72 0.5,-1.11 0.41,-0.39 0.4,-0.39 1.01,-0.39 0.61,0 0.65,0 1.08,0.42 0.43,0.41 0.43,0.42 0.44,0.97 0,0.57 0,0.4 -0.19,0.81 -0.19,0.4 -0.29,0.64 -0.94,1.34 -0.65,0.71 -0.98,1.06 -1.22,1.29 -0.24,0.22 2.78,0 0.42,0 0.59,-0.03 0.17,-0.03 0.17,-0.03 0.31,-0.13 0.14,-0.1 0.14,-0.09 0.23,-0.28 0.11,-0.17 0.29,0 z"
     id="path142"
     inkscape:connector-curvature="0"
     style="fill:#000000;fill-rule:evenodd;stroke-width:1.2;stroke-miterlimit:4;stroke-dasharray:none" />
  <path
     d="m 137.58,70.16 -0.61,1.34 -3.19,0 -0.71,1.42 1.04,0.15 1.65,0.78 0.61,0.61 0.52,0.54 0.52,1.25 0,0.72 0,0.42 -0.17,0.77 -0.17,0.36 -0.17,0.36 -0.43,0.6 -0.26,0.25 -0.26,0.25 -0.57,0.41 -0.32,0.15 -0.45,0.21 -0.92,0.22 -0.48,0 -0.48,0 -0.69,-0.16 -0.22,-0.16 -0.22,-0.17 -0.21,-0.35 0,-0.2 0,-0.11 0.09,-0.19 0.09,-0.09 0.09,-0.08 0.22,-0.09 0.14,0 0.1,0 0.18,0.04 0.08,0.03 0.07,0.03 0.26,0.16 0.19,0.13 0.29,0.2 0.6,0.2 0.3,0.01 0.46,0 0.8,-0.35 0.35,-0.35 0.34,-0.34 0.35,-0.85 0,-0.5 0,-0.48 -0.31,-0.9 -0.31,-0.41 -0.31,-0.42 -0.85,-0.64 -0.55,-0.23 -0.42,-0.18 -1.17,-0.2 -0.74,-0.03 2.04,-4.13 3.81,0 z"
     id="path144"
     inkscape:connector-curvature="0"
     style="fill:#000000;fill-rule:evenodd;stroke-width:1.2;stroke-miterlimit:4;stroke-dasharray:none" />
  <path
     d="m 145.83,69.92 0.51,0 0.85,0.35 0.35,0.36 0.35,0.35 0.35,0.85 0,0.5 0,0.5 -0.35,0.85 -0.35,0.35 -0.35,0.36 -0.86,0.35 -0.5,0 -0.5,0 -0.85,-0.35 -0.35,-0.36 -0.35,-0.35 -0.35,-0.85 0,-0.5 0,-0.5 0.35,-0.85 0.35,-0.35 0.35,-0.36 0.85,-0.35 0.5,0 0,0 z m 0,0.66 -0.36,0 -0.62,0.26 -0.25,0.25 -0.26,0.26 -0.25,0.62 0,0.36 0,0.36 0.25,0.62 0.26,0.25 0.25,0.26 0.62,0.25 0.36,0 0.36,0 0.62,-0.25 0.26,-0.26 0.25,-0.25 0.26,-0.62 0,-0.36 0,-0.36 -0.25,-0.62 -0.26,-0.26 -0.25,-0.25 -0.62,-0.26 -0.37,0 0,0 z"
     id="path146"
     inkscape:connector-curvature="0"
     style="fill:#000000;fill-rule:evenodd;stroke-width:1.2;stroke-miterlimit:4;stroke-dasharray:none" />
  <path
     d="m 158.74,69.92 0.24,3.61 -0.24,0 -0.24,-0.81 -0.7,-1.17 -0.45,-0.36 -0.45,-0.36 -1.08,-0.36 -0.63,0 -0.53,0 -0.95,0.27 -0.43,0.27 -0.42,0.27 -0.67,0.86 -0.25,0.59 -0.24,0.58 -0.25,1.47 0,0.87 0,0.72 0.23,1.25 0.23,0.53 0.23,0.53 0.7,0.81 0.46,0.28 0.46,0.29 1.06,0.28 0.6,0 0.51,0 0.91,-0.22 0.4,-0.22 0.39,-0.23 0.87,-0.88 0.47,-0.66 0.25,0.15 -0.4,0.71 -0.93,1.04 -0.54,0.33 -0.53,0.33 -1.26,0.33 -0.74,0 -1.31,0 -2.05,-0.97 -0.72,-0.98 -0.54,-0.73 -0.54,-1.72 0,-0.98 0,-0.8 0.35,-1.46 0.36,-0.66 0.36,-0.67 0.98,-1.03 0.62,-0.37 0.63,-0.36 1.36,-0.37 0.74,0 0.58,0 1.14,0.28 0.56,0.29 0.16,0.08 0.24,0.09 0.07,0 0.1,0 0.19,-0.08 0.08,-0.07 0.1,-0.11 0.14,-0.29 0.05,-0.19 0.27,0 z"
     id="path148"
     inkscape:connector-curvature="0"
     style="fill:#000000;fill-rule:evenodd;stroke-width:1.2;stroke-miterlimit:4;stroke-dasharray:none" />
  <path
     d="m 103.33,78.73 0,5.79 0,0.73 -0.31,1.1 -0.31,0.36 -0.32,0.35 -0.81,0.36 -0.51,0 -0.28,0 -0.43,-0.1 -0.13,-0.11 -0.14,-0.1 -0.14,-0.21 0,-0.11 0,-0.11 0.08,-0.19 0.07,-0.08 0.08,-0.08 0.18,-0.07 0.1,0 0.08,0 0.17,0.04 0.09,0.04 0.05,0.02 0.2,0.16 0.16,0.13 0.15,0.14 0.25,0.14 0.11,0 0.07,0 0.15,-0.06 0.07,-0.06 0.07,-0.06 0.11,-0.19 0.03,-0.14 0.04,-0.14 0.03,-0.59 0,-0.45 0,-4.09 0,-0.48 -0.03,-0.6 -0.03,-0.14 -0.02,-0.1 -0.07,-0.15 -0.04,-0.04 -0.05,-0.03 -0.13,-0.04 -0.08,0 -0.09,0 -0.21,0.04 -0.13,0.05 -0.09,-0.23 1.74,-0.7 0.27,0 z"
     id="path150"
     inkscape:connector-curvature="0"
     style="fill:#000000;fill-rule:evenodd;stroke-width:0.6;stroke-miterlimit:4;stroke-dasharray:none" />
  <path
     d="m 102.79,75.73 0.14,0 0.23,0.09 0.09,0.1 0.09,0.09 0.1,0.23 0,0.13 0,0.14 -0.1,0.22 -0.09,0.1 -0.09,0.09 -0.23,0.1 -0.14,0 -0.13,0 -0.23,-0.1 -0.09,-0.09 -0.09,-0.1 -0.1,-0.22 0,-0.14 0,-0.13 0.1,-0.23 0.09,-0.09 0.09,-0.1 0.23,-0.09 0.13,0 0,0 z"
     id="path152"
     inkscape:connector-curvature="0"
     style="fill:#000000;fill-rule:evenodd;stroke-width:0.6;stroke-miterlimit:4;stroke-dasharray:none" />
  <path
     d="m 164.31,77.4 139.44,0"
     id="path154"
     inkscape:connector-curvature="0"
     style="fill:none;stroke:#000000;stroke-width:1.2;stroke-miterlimit:4;stroke-dasharray:none" />
  <path
     d="m 303.75,59.29 -43.46,76.06 m 0,0 -14.54,24.23 m 0,0 -7.11,11.99 m 0,0 -7.45,11.77 m 0,0 -17.56,25.26 m 0,0 -18.53,24.53 m 0,0 -17.24,20.42 m 0,0 -9.19,9.67 m 0,0 -9.79,9.03 m 0,0 -6.69,4.89 m 0,0 -7.23,4.13 m 0,0 -15.05,7.28 m 0,0 -7.1,2.88 m 0,0 -7.39,2 m 0,0 -7.21,0.94 m 0,0 -7.28,0.33 m 0,0 -14.48,0"
     id="path156"
     inkscape:connector-curvature="0"
     style="fill:none;stroke:#000000;stroke-width:2;stroke-miterlimit:4;stroke-dasharray:none" />
  <path
     d="m 159.15,415.75 3.62,-12.68"
     id="path158"
     inkscape:connector-curvature="0"
     style="fill:none;stroke:#000000;stroke-width:0.6;stroke-miterlimit:4;stroke-dasharray:none" />
  <path
     d="m 162.77,403.07 -7.24,0"
     id="path160"
     inkscape:connector-curvature="0"
     style="fill:none;stroke:#000000;stroke-width:0.6;stroke-miterlimit:4;stroke-dasharray:none" />
  <path
     d="m 155.53,403.07 3.62,12.68"
     id="path162"
     inkscape:connector-curvature="0"
     style="fill:none;stroke:#000000;stroke-width:0.6;stroke-miterlimit:4;stroke-dasharray:none" />
  <path
     d="m 158.88,406.97 0,-86.92"
     id="path164"
     inkscape:connector-curvature="0"
     style="fill:none;stroke:#000000;stroke-width:1.2;stroke-miterlimit:4;stroke-dasharray:none" />
  <path
     d="m 159.15,415.75 0,-12.68 -3.62,0 3.62,12.68 z"
     id="path166"
     inkscape:connector-curvature="0"
     style="fill:#000000;fill-rule:evenodd;stroke-width:0.6;stroke-miterlimit:4;stroke-dasharray:none" />
  <path
     d="m 159.15,415.75 3.62,-12.68 -3.62,0 0,12.68 z"
     id="path168"
     inkscape:connector-curvature="0"
     style="fill:#000000;fill-rule:evenodd;stroke-width:0.6;stroke-miterlimit:4;stroke-dasharray:none" />
  <path
     d="m 148.73,405.18 -0.63,2.13 1.08,0 -0.13,0.5 -1.1,0 -1.43,4.61 -0.13,0.4 -0.13,0.51 0,0.11 0,0.07 0.02,0.09 0.03,0.04 0.03,0.03 0.07,0.03 0.03,0 0.09,0 0.23,-0.13 0.15,-0.13 0.08,-0.08 0.37,-0.48 0.3,-0.4 0.25,0.19 -0.34,0.52 -0.64,0.72 -0.31,0.21 -0.2,0.14 -0.42,0.14 -0.21,0 -0.17,0 -0.26,-0.11 -0.11,-0.1 -0.1,-0.11 -0.1,-0.28 0,-0.16 0,-0.21 0.13,-0.65 0.13,-0.44 1.37,-4.53 -1.19,0 0.08,-0.31 0.43,-0.12 0.73,-0.35 0.3,-0.23 0.3,-0.24 0.68,-0.8 0.38,-0.58 0.34,0 z"
     id="path170"
     inkscape:connector-curvature="0"
     style="fill:#000000;fill-rule:evenodd;stroke-width:0.6;stroke-miterlimit:4;stroke-dasharray:none" />
  <path
     d="m 158.88,330.92 12.68,3.62 m 0,0 5.43,1.81 m 0,0 8.29,3.33 m 0,0 8.01,3.91 m 0,0 1.33,1.57 m 0,0 0.48,2.06 m 0,0 -0.48,2.05 m 0,0 -1.33,1.57 m 0,0 -8.01,3.91 m 0,0 -8.29,3.33 m 0,0 -5.43,1.81 m 0,0 -25.36,7.25 m 0,0 -5.43,1.81 m 0,0 -8.29,3.33 m 0,0 -8.01,3.91 m 0,0 -1.34,1.56 m 0,0 -0.47,2.06 m 0,0 0.47,2.06 m 0,0 1.34,1.56 m 0,0 8.01,3.91 m 0,0 8.29,3.34 m 0,0 5.43,1.81 m 0,0 12.68,3.62"
     id="path172"
     inkscape:connector-curvature="0"
     style="fill:none;stroke:#000000;stroke-width:1.2;stroke-miterlimit:4;stroke-dasharray:none" />
  <path
     d="M 425.07,271.89 412.4,268.26"
     id="path174"
     inkscape:connector-curvature="0"
     style="fill:none;stroke:#000000;stroke-width:0.6;stroke-miterlimit:4;stroke-dasharray:none" />
  <path
     d="m 412.4,268.26 0,7.25"
     id="path176"
     inkscape:connector-curvature="0"
     style="fill:none;stroke:#000000;stroke-width:0.6;stroke-miterlimit:4;stroke-dasharray:none" />
  <path
     d="m 412.4,275.51 12.67,-3.62"
     id="path178"
     inkscape:connector-curvature="0"
     style="fill:none;stroke:#000000;stroke-width:0.6;stroke-miterlimit:4;stroke-dasharray:none" />
  <path
     d="M 320.04,271.89 158.99,272"
     id="path180"
     inkscape:connector-curvature="0"
     style="fill:none;stroke:#000000;stroke-width:0.6;stroke-miterlimit:4;stroke-dasharray:none" />
  <path
     d="m 412.4,275.51 12.67,-3.62 -12.67,-3.63 0,7.25 z"
     id="path182"
     inkscape:connector-curvature="0"
     style="fill:#000000;fill-rule:evenodd;stroke-width:0.6;stroke-miterlimit:4;stroke-dasharray:none" />
  <path
     d="m 339.96,271.16 3.62,-10.86 m 0,0 0.89,-3.09 m 0,0 0.93,-3.07 m 0,0 1.66,-4.95 m 0,0 1.66,-4.96 m 0,0 1.8,-4.89 m 0,0 2.12,-4.76 m 0,0 0.63,-0.87 m 0,0 0.89,-0.69 m 0,0 1.03,-0.45 m 0,0 1.07,-0.16 m 0,0 1.07,0.16 m 0,0 1.02,0.46 m 0,0 0.88,0.69 m 0,0 0.65,0.86 m 0,0 1.65,3.59 m 0,0 1.34,3.72 m 0,0 1.2,3.78 m 0,0 1.24,3.76 m 0,0 3.63,10.87 m 0,0 1.75,5.81 m 0,0 1.87,5.78 m 0,0 1.7,4.21 m 0,0 1.92,4.12 m 0,0 0.8,1.52 m 0,0 1.01,1.37 m 0,0 3.48,3.6 m 0,0 1.83,1.7 m 0,0 1.93,1.58 m 0,0 0.82,0.56 m 0,0 0.89,0.46 m 0,0 0.95,0.32 m 0,0 0.96,0.11 m 0,0 0.97,-0.11 m 0,0 0.95,-0.32 m 0,0 0.89,-0.46 m 0,0 0.82,-0.56 m 0,0 1.93,-1.58 m 0,0 1.83,-1.7 m 0,0 3.48,-3.6 m 0,0 1.01,-1.37 m 0,0 0.8,-1.52 m 0,0 1.88,-4.14 m 0,0 1.74,-4.19"
     id="path184"
     inkscape:connector-curvature="0"
     style="fill:none;stroke:#000000;stroke-width:1.2;stroke-miterlimit:4;stroke-dasharray:none" />
  <path
     d="m 413.12,278.42 -0.64,2.13 1.08,0 -0.13,0.5 -1.1,0 -1.43,4.61 -0.13,0.4 -0.13,0.51 0,0.11 0,0.07 0.03,0.09 0.02,0.04 0.03,0.03 0.07,0.03 0.04,0 0.08,0 0.23,-0.13 0.15,-0.13 0.08,-0.07 0.38,-0.49 0.29,-0.4 0.25,0.2 -0.34,0.51 -0.64,0.73 -0.3,0.2 -0.21,0.14 -0.42,0.14 -0.21,0 -0.16,0 -0.27,-0.1 -0.11,-0.11 -0.1,-0.11 -0.1,-0.27 0,-0.17 0,-0.21 0.13,-0.65 0.13,-0.43 1.38,-4.54 -1.2,0 0.08,-0.31 0.43,-0.12 0.73,-0.35 0.3,-0.23 0.3,-0.23 0.68,-0.81 0.38,-0.58 0.35,0 z"
     id="path186"
     inkscape:connector-curvature="0"
     style="fill:#000000;fill-rule:evenodd;stroke-width:0.6;stroke-miterlimit:4;stroke-dasharray:none" />
  <path
     d="m 176.68,336.25 0,-82.08"
     id="path188"
     inkscape:connector-curvature="0"
     style="fill:none;stroke:#000000;stroke-width:0.6;stroke-miterlimit:4;stroke-dasharray:none" />
  <path
     d="m 176.68,254.17 168.65,0"
     id="path190"
     inkscape:connector-curvature="0"
     style="fill:none;stroke:#000000;stroke-width:0.6;stroke-miterlimit:4;stroke-dasharray:none" />
  <path
     d="m 193.29,343.6 0,-108.92"
     id="path192"
     inkscape:connector-curvature="0"
     style="fill:none;stroke:#000000;stroke-width:0.6;stroke-miterlimit:4;stroke-dasharray:none" />
  <path
     d="m 193.29,234.68 159.07,0"
     id="path194"
     inkscape:connector-curvature="0"
     style="fill:none;stroke:#000000;stroke-width:0.6;stroke-miterlimit:4;stroke-dasharray:none" />
  <path
     d="m 140.92,368.83 0,-85.6"
     id="path196"
     inkscape:connector-curvature="0"
     style="fill:none;stroke:#000000;stroke-width:0.6;stroke-miterlimit:4;stroke-dasharray:none" />
  <path
     d="m 140.92,283.23 236.92,-0.07"
     id="path198"
     inkscape:connector-curvature="0"
     style="fill:none;stroke:#000000;stroke-width:0.6;stroke-miterlimit:4;stroke-dasharray:none" />
  <path
     d="m 122.41,291.43 266.39,0"
     id="path200"
     inkscape:connector-curvature="0"
     style="fill:none;stroke:#000000;stroke-width:0.6;stroke-miterlimit:4;stroke-dasharray:none" />
  <path
     d="m 176.99,336.35 168.41,0"
     id="path202"
     inkscape:connector-curvature="0"
     style="fill:none;stroke:#000000;stroke-width:0.6;stroke-miterlimit:4;stroke-dasharray:none" />
  <path
     d="m 345.4,336.35 0,-246.27"
     id="path204"
     inkscape:connector-curvature="0"
     style="fill:none;stroke:#000000;stroke-width:0.6;stroke-miterlimit:4;stroke-dasharray:none" />
  <path
     d="m 193.29,343.59 159.35,0"
     id="path206"
     inkscape:connector-curvature="0"
     style="fill:none;stroke:#000000;stroke-width:0.6;stroke-miterlimit:4;stroke-dasharray:none" />
  <path
     d="m 352.64,343.59 0,-280.67"
     id="path208"
     inkscape:connector-curvature="0"
     style="fill:none;stroke:#000000;stroke-width:0.6;stroke-miterlimit:4;stroke-dasharray:none" />
  <path
     d="m 158.88,363.51 213.68,0"
     id="path210"
     inkscape:connector-curvature="0"
     style="fill:none;stroke:#000000;stroke-width:0.6;stroke-miterlimit:4;stroke-dasharray:none" />
  <path
     d="m 140.77,368.95 237.22,0"
     id="path212"
     inkscape:connector-curvature="0"
     style="fill:none;stroke:#000000;stroke-width:0.6;stroke-miterlimit:4;stroke-dasharray:none" />
  <path
     d="m 372.56,363.51 0,-92.35"
     id="path214"
     inkscape:connector-curvature="0"
     style="fill:none;stroke:#000000;stroke-width:0.6;stroke-miterlimit:4;stroke-dasharray:none" />
  <path
     d="m 377.99,368.95 0,-85.11"
     id="path216"
     inkscape:connector-curvature="0"
     style="fill:none;stroke:#000000;stroke-width:0.6;stroke-miterlimit:4;stroke-dasharray:none" />
  <path
     d="m 388.85,184.24 0,195.57"
     id="path218"
     inkscape:connector-curvature="0"
     style="fill:none;stroke:#000000;stroke-width:0.6;stroke-miterlimit:4;stroke-dasharray:none" />
  <path
     d="m 388.85,379.81 -266.19,0"
     id="path220"
     inkscape:connector-curvature="0"
     style="fill:none;stroke:#000000;stroke-width:0.6;stroke-miterlimit:4;stroke-dasharray:none" />
  <path
     d="m 330.59,271.9 83.18,0"
     id="path222"
     inkscape:connector-curvature="0"
     style="fill:none;stroke:#000000;stroke-width:1.2;stroke-miterlimit:4;stroke-dasharray:none" />
  <path
     d="m 122.66,294.7 0,85.11"
     id="path224"
     inkscape:connector-curvature="0"
     style="fill:none;stroke:#000000;stroke-width:0.6;stroke-miterlimit:4;stroke-dasharray:none" />
  <path
     d="m 267.8,415.75 3.62,-12.68"
     id="path226"
     inkscape:connector-curvature="0"
     style="fill:none;stroke:#000000;stroke-width:0.6;stroke-miterlimit:4;stroke-dasharray:none" />
  <path
     d="m 271.42,403.07 -7.24,0"
     id="path228"
     inkscape:connector-curvature="0"
     style="fill:none;stroke:#000000;stroke-width:0.6;stroke-miterlimit:4;stroke-dasharray:none" />
  <path
     d="m 264.18,403.07 3.62,12.68"
     id="path230"
     inkscape:connector-curvature="0"
     style="fill:none;stroke:#000000;stroke-width:0.6;stroke-miterlimit:4;stroke-dasharray:none" />
  <path
     d="m 267.8,415.75 0,-12.68 -3.62,0 3.62,12.68 z"
     id="path232"
     inkscape:connector-curvature="0"
     style="fill:#000000;fill-rule:evenodd;stroke-width:0.6;stroke-miterlimit:4;stroke-dasharray:none" />
  <path
     d="m 267.8,415.75 3.62,-12.68 -3.62,0 0,12.68 z"
     id="path234"
     inkscape:connector-curvature="0"
     style="fill:#000000;fill-rule:evenodd;stroke-width:0.6;stroke-miterlimit:4;stroke-dasharray:none" />
  <path
     d="m 257.38,405.18 -0.64,2.13 1.09,0 -0.13,0.5 -1.11,0 -1.42,4.61 -0.13,0.4 -0.13,0.51 0,0.11 0,0.07 0.02,0.09 0.03,0.04 0.03,0.03 0.07,0.03 0.03,0 0.09,0 0.23,-0.13 0.15,-0.13 0.08,-0.08 0.37,-0.48 0.29,-0.4 0.26,0.19 -0.34,0.52 -0.64,0.72 -0.31,0.21 -0.2,0.14 -0.42,0.14 -0.21,0 -0.17,0 -0.26,-0.11 -0.11,-0.1 -0.1,-0.11 -0.1,-0.28 0,-0.16 0,-0.21 0.13,-0.65 0.13,-0.44 1.37,-4.53 -1.19,0 0.08,-0.31 0.43,-0.12 0.73,-0.35 0.3,-0.23 0.3,-0.24 0.68,-0.8 0.38,-0.58 0.34,0 z"
     id="path236"
     inkscape:connector-curvature="0"
     style="fill:#000000;fill-rule:evenodd;stroke-width:0.6;stroke-miterlimit:4;stroke-dasharray:none" />
  <path
     d="m 267.53,330.92 12.68,3.62 m 0,0 5.43,1.81 m 0,0 8.29,3.33 m 0,0 8.01,3.91 m 0,0 1.33,1.57 m 0,0 0.48,2.06 m 0,0 -0.48,2.05 m 0,0 -1.33,1.57 m 0,0 -8.01,3.91 m 0,0 -8.29,3.33 m 0,0 -5.43,1.81 m 0,0 -25.36,7.25 m 0,0 -5.43,1.81 m 0,0 -8.29,3.33 m 0,0 -8.01,3.91 m 0,0 -1.34,1.56 m 0,0 -0.47,2.06 m 0,0 0.47,2.06 m 0,0 1.34,1.56 m 0,0 8.01,3.91 m 0,0 8.29,3.34 m 0,0 5.43,1.81 m 0,0 12.68,3.62"
     id="path238"
     inkscape:connector-curvature="0"
     style="fill:none;stroke:#000000;stroke-width:1.2;stroke-miterlimit:4;stroke-dasharray:none" />
  <path
     d="m 267.53,327.3 0,81.48"
     id="path240"
     inkscape:connector-curvature="0"
     style="fill:none;stroke:#000000;stroke-width:1.2;stroke-miterlimit:4;stroke-dasharray:none" />
  <path
     d="m 339.96,120.86 3.62,-19.92 m 0,0 1.82,-10.86 m 0,0 7.24,-27.16 m 0,0 1.38,-2.42 m 0,0 1.03,-0.87 m 0,0 1.21,-0.34 m 0,0 1.21,0.34 m 0,0 1.03,0.87 m 0,0 1.38,2.42 m 0,0 4.12,13.44 m 0,0 3.12,13.72 m 0,0 2.88,16.27 m 0,0 2.53,16.33 m 0,0 5.46,32.59 m 0,0 3.11,12.82 m 0,0 4.13,12.53 m 0,0 1.4,2.41 m 0,0 1.02,0.87 m 0,0 1.2,0.34 m 0,0 1.21,-0.34 m 0,0 1.02,-0.87 m 0,0 1.4,-2.41 m 0,0 4.07,-12.54 m 0,0 3.17,-12.81 m 0,0 3.09,-16.24 m 0,0 2.34,-16.36"
     id="path242"
     inkscape:connector-curvature="0"
     style="fill:none;stroke:#000000;stroke-width:1.2;stroke-miterlimit:4;stroke-dasharray:none" />
  <path
     d="m 425.23,121.41 -12.68,-3.63"
     id="path244"
     inkscape:connector-curvature="0"
     style="fill:none;stroke:#000000;stroke-width:0.6;stroke-miterlimit:4;stroke-dasharray:none" />
  <path
     d="m 412.55,117.78 0,7.25"
     id="path246"
     inkscape:connector-curvature="0"
     style="fill:none;stroke:#000000;stroke-width:0.6;stroke-miterlimit:4;stroke-dasharray:none" />
  <path
     d="m 412.55,125.03 12.68,-3.62"
     id="path248"
     inkscape:connector-curvature="0"
     style="fill:none;stroke:#000000;stroke-width:0.6;stroke-miterlimit:4;stroke-dasharray:none" />
  <path
     d="m 412.55,125.03 12.68,-3.62 -12.68,-3.63 0,7.25 z"
     id="path250"
     inkscape:connector-curvature="0"
     style="fill:#000000;fill-rule:evenodd;stroke-width:0.6;stroke-miterlimit:4;stroke-dasharray:none" />
  <path
     d="m 413.27,127.94 -0.64,2.13 1.09,0 -0.13,0.5 -1.11,0 -1.42,4.61 -0.13,0.4 -0.13,0.51 0,0.11 0,0.07 0.02,0.09 0.03,0.04 0.03,0.03 0.07,0.03 0.03,0 0.09,0 0.23,-0.13 0.15,-0.13 0.08,-0.07 0.37,-0.49 0.29,-0.4 0.26,0.2 -0.34,0.51 -0.64,0.73 -0.31,0.2 -0.2,0.14 -0.42,0.14 -0.21,0 -0.17,0 -0.26,-0.1 -0.11,-0.11 -0.1,-0.11 -0.1,-0.27 0,-0.17 0,-0.21 0.13,-0.65 0.13,-0.43 1.37,-4.54 -1.19,0 0.08,-0.31 0.43,-0.12 0.73,-0.35 0.3,-0.23 0.3,-0.23 0.68,-0.81 0.38,-0.58 0.34,0 z"
     id="path252"
     inkscape:connector-curvature="0"
     style="fill:#000000;fill-rule:evenodd;stroke-width:0.6;stroke-miterlimit:4;stroke-dasharray:none" />
  <path
     d="m 412.77,118.33 0,7.24"
     id="path254"
     inkscape:connector-curvature="0"
     style="fill:none;stroke:#000000;stroke-width:0.6;stroke-miterlimit:4;stroke-dasharray:none" />
  <path
     d="m 330.91,121.95 83.23,0.01"
     id="path256"
     inkscape:connector-curvature="0"
     style="fill:none;stroke:#000000;stroke-width:1.2;stroke-miterlimit:4;stroke-dasharray:none" />
  <path
     d="m 285.64,316.43 0,-226.35"
     id="path258"
     inkscape:connector-curvature="0"
     style="fill:none;stroke:#000000;stroke-width:0.6;stroke-miterlimit:4;stroke-dasharray:none" />
  <path
     d="m 285.64,90.8 59.76,0"
     id="path260"
     inkscape:connector-curvature="0"
     style="fill:none;stroke:#000000;stroke-width:0.6;stroke-miterlimit:4;stroke-dasharray:none" />
  <path
     d="M 352.42,63.84 301.94,64"
     id="path262"
     inkscape:connector-curvature="0"
     style="fill:none;stroke:#000000;stroke-width:0.6;stroke-miterlimit:4;stroke-dasharray:none" />
  <path
     d="m 301.94,62.92 0,237.21"
     id="path264"
     inkscape:connector-curvature="0"
     style="fill:none;stroke:#000000;stroke-width:0.6;stroke-miterlimit:4;stroke-dasharray:none" />
  <path
     d="m 388.85,184.24 -157.54,0"
     id="path266"
     inkscape:connector-curvature="0"
     style="fill:none;stroke:#000000;stroke-width:0.6;stroke-miterlimit:4;stroke-dasharray:none" />
  <path
     d="m 320.04,121.95 -52.51,0"
     id="path268"
     inkscape:connector-curvature="0"
     style="fill:none;stroke:#000000;stroke-width:0.6;stroke-miterlimit:4;stroke-dasharray:none" />
  <path
     d="m 0.77,349.03 1.81,0"
     id="path270"
     inkscape:connector-curvature="0"
     style="fill:none;stroke:#000000;stroke-width:0.1" />
  <path
     d="m 231.31,379.81 0,-45.27"
     id="path272"
     inkscape:connector-curvature="0"
     style="fill:none;stroke:#000000;stroke-width:0.6;stroke-miterlimit:4;stroke-dasharray:none" />
  <path
     d="m 158.88,88.27 0,206.43"
     id="path274"
     inkscape:connector-curvature="0"
     style="fill:none;stroke:#000000;stroke-width:1.2;stroke-miterlimit:4;stroke-dasharray:none" />
  <path
     d="m 285.64,330.92 0,5.43"
     id="path276"
     inkscape:connector-curvature="0"
     style="fill:none;stroke:#000000;stroke-width:0.6;stroke-miterlimit:4;stroke-dasharray:none" />
  <path
     d="m 301.94,316.43 0,27.16"
     id="path278"
     inkscape:connector-curvature="0"
     style="fill:none;stroke:#000000;stroke-width:0.6;stroke-miterlimit:4;stroke-dasharray:none" />
</svg>
